<?xml version="1.0" encoding="UTF-8"?>
<!-- Generated by Pixelmator Pro 3.5.11 -->
<svg width="521" height="154" viewBox="0 0 521 154" xmlns="http://www.w3.org/2000/svg">
    <g id="Agrupar">
        <text id="S" xml:space="preserve" x="404.345" y="121" font-family="BiauKaiHK" font-size="110" fill="#ffffff">S</text>
        <path id="HINITA" fill="#ffffff" fill-rule="evenodd" stroke="none" d="M 303.740234 112 L 303.740234 109.699219 C 306.960236 109.699219 309.260834 109.51664 310.548828 109.056641 C 312.756836 108.320641 313.951172 106.572495 313.951172 103.8125 L 313.951172 58.087891 C 313.951172 55.787895 312.387573 54.591797 309.351563 54.591797 C 306.131561 54.591797 302.819824 55.879478 299.507813 58.271484 C 296.747803 60.295479 293.527863 63.424263 289.755859 67.65625 L 287.455078 66.736328 L 293.068359 52.292969 L 342.839844 52.292969 L 348.451172 66.736328 L 346.244141 67.65625 C 341.828156 62.964256 338.424805 59.835686 336.216797 58.179688 C 332.904785 55.787689 329.683075 54.591797 326.371094 54.591797 C 323.427094 54.591797 322.048828 55.87928 322.048828 58.363281 L 322.048828 104.640625 C 322.048828 107.032623 323.05957 108.50444 325.267578 109.148438 C 326.463562 109.516434 328.764191 109.699219 332.076172 109.699219 L 332.076172 112 L 303.740234 112 Z M 341.107422 112 L 341.107422 109.699219 C 343.49942 109.699219 345.432709 109.331703 346.720703 108.595703 C 348.928711 107.491699 350.676849 105.191109 351.964844 101.787109 L 370.087891 52.292969 L 377.080078 50.636719 L 395.847656 102.339844 C 396.95166 105.467834 398.331879 107.583908 400.171875 108.503906 C 401.367889 109.239906 403.392334 109.607224 406.152344 109.699219 L 406.152344 112 L 380.576172 112 L 380.576172 109.699219 C 383.152191 109.699219 384.899902 109.516434 386.003906 109.148438 C 387.843903 108.596436 388.763672 107.583527 388.763672 106.019531 L 388.212891 103.351563 L 383.519531 90.748047 L 359.416016 90.748047 L 355.736328 101.052734 C 355.184326 102.616737 354.908203 103.995407 354.908203 105.191406 C 354.908203 108.043396 357.667511 109.515213 363.1875 109.699219 L 363.1875 112 L 341.107422 112 Z M 360.519531 87.712891 L 382.507813 87.712891 L 371.652344 57.443359 L 371.46875 57.443359 L 360.519531 87.712891 Z M 285.247986 112 L 285.247986 109.699997 C 282.395996 109.699997 280.463989 109.515999 279.359985 109.056 C 277.428009 108.32 276.507996 106.664001 276.507996 104.272003 L 276.507996 61.031998 C 276.507996 58.363998 277.243988 56.615997 278.716003 55.695999 C 279.820007 55.052002 282.028015 54.683998 285.247986 54.592003 L 285.247986 52.292 L 259.671997 52.292 L 259.671997 54.592003 C 262.339996 54.592003 264.272003 54.867996 265.467987 55.236 C 267.399994 55.972 268.411987 57.536003 268.411987 59.928001 L 268.411987 103.444 C 268.411987 107.675995 266.29599 109.699997 262.247986 109.699997 L 259.671997 109.699997 L 259.671997 112 L 285.247986 112 Z M 257.371979 54.592003 L 257.371979 52.292 L 238.143997 52.292 L 238.143997 54.592003 C 243.388 54.867996 246.056 57.444 246.056 62.32 L 246.056 98.936005 L 245.871994 98.936005 L 211.647995 52.292 L 196.468002 52.292 L 196.468002 54.592003 C 199.412003 54.776001 202.356003 55.972 205.300003 58.18 L 205.300003 101.787994 C 205.300003 106.940002 202.356003 109.515999 196.468002 109.699997 L 196.468002 112 L 217.904007 112 L 217.904007 109.699997 C 211.647995 109.515999 208.612 106.940002 208.612 101.787994 L 208.612 60.848 L 208.796005 60.848 L 247.619995 113.656006 L 249.367996 113.656006 L 249.367996 62.32 C 249.367996 57.351997 252.035995 54.776001 257.371979 54.592003 Z M 194.259995 112 L 194.259995 109.699997 C 191.408005 109.699997 189.475998 109.515999 188.371994 109.056 C 186.440002 108.32 185.520004 106.664001 185.520004 104.272003 L 185.520004 61.031998 C 185.520004 58.363998 186.255997 56.615997 187.727997 55.695999 C 188.832001 55.052002 191.039993 54.683998 194.259995 54.592003 L 194.259995 52.292 L 168.684006 52.292 L 168.684006 54.592003 C 171.352005 54.592003 173.283997 54.867996 174.479996 55.236 C 176.412003 55.972 177.423996 57.536003 177.423996 59.928001 L 177.423996 103.444 C 177.423996 107.675995 175.307999 109.699997 171.259995 109.699997 L 168.684006 109.699997 L 168.684006 112 L 194.259995 112 Z M 166.475998 112 L 166.475998 109.699997 C 163.899994 109.699997 162.059998 109.423996 161.048004 108.872002 C 159.207993 108.136002 158.380005 106.571999 158.380005 104.18 L 158.380005 60.204002 C 158.380005 57.996002 159.207993 56.431999 160.955994 55.512001 C 162.059998 54.959999 163.899994 54.683998 166.475998 54.592003 L 166.475998 52.292 L 141.912003 52.292 L 141.912003 54.592003 C 144.488007 54.592003 146.419998 54.867996 147.524002 55.328003 C 149.363998 56.248001 150.283997 57.903999 150.283997 60.480003 L 150.283997 79.891998 L 121.671997 79.891998 L 121.671997 60.204002 C 121.671997 57.996002 122.5 56.431999 124.248001 55.512001 C 125.351997 54.959999 127.192001 54.683998 129.76799 54.592003 L 129.76799 52.292 L 105.480003 52.292 L 105.480003 54.592003 L 107.503998 54.592003 C 111.552002 54.592003 113.575996 56.524002 113.575996 60.204002 L 113.575996 104.18 C 113.575996 107.860001 110.816002 109.699997 105.480003 109.699997 L 105.480003 112 L 129.76799 112 L 129.76799 109.699997 C 127.192001 109.608002 125.444 109.332001 124.431999 108.872002 C 122.592003 108.136002 121.671997 106.755997 121.671997 104.731995 L 121.671997 82.835999 L 150.283997 82.835999 L 150.283997 104.18 C 150.283997 106.571999 149.272003 108.227997 147.339996 108.964005 C 146.235992 109.515999 144.395996 109.699997 141.912003 109.699997 L 141.912003 112 L 166.475998 112 Z"/>
        <text id="C" xml:space="preserve" x="41.985" y="120" font-family="BiauKaiHK" font-size="110" fill="#ffffff">C</text>
    </g>
</svg>
