<?xml version="1.0" encoding="UTF-8"?>
<!-- Generated by Pixelmator Pro 3.5.11 -->
<svg width="521" height="154" viewBox="0 0 521 154" xmlns="http://www.w3.org/2000/svg">
    <g id="Agrupar">
        <text id="S" xml:space="preserve" x="403" y="137" font-family="BiauKaiHK" font-size="110" fill="#ffffff">S</text>
        <path id="HINITA" fill="#ffffff" fill-rule="evenodd" stroke="none" d="M 303.740234 126 L 303.740234 123.699219 C 306.960236 123.699219 309.260834 123.51664 310.548828 123.056641 C 312.756836 122.320641 313.951172 120.572495 313.951172 117.8125 L 313.951172 72.087891 C 313.951172 69.787895 312.387573 68.591797 309.351563 68.591797 C 306.131561 68.591797 302.819824 69.879478 299.507813 72.271484 C 296.747803 74.295479 293.527863 77.424263 289.755859 81.65625 L 287.455078 80.736328 L 293.068359 66.292969 L 342.839844 66.292969 L 348.451172 80.736328 L 346.244141 81.65625 C 341.828156 76.964256 338.424805 73.835686 336.216797 72.179688 C 332.904785 69.787689 329.683075 68.591797 326.371094 68.591797 C 323.427094 68.591797 322.048828 69.87928 322.048828 72.363281 L 322.048828 118.640625 C 322.048828 121.032623 323.05957 122.50444 325.267578 123.148438 C 326.463562 123.516434 328.764191 123.699219 332.076172 123.699219 L 332.076172 126 L 303.740234 126 Z M 341.107422 126 L 341.107422 123.699219 C 343.49942 123.699219 345.432709 123.331703 346.720703 122.595703 C 348.928711 121.491699 350.676849 119.191109 351.964844 115.787109 L 370.087891 66.292969 L 377.080078 64.636719 L 395.847656 116.339844 C 396.95166 119.467834 398.331879 121.583908 400.171875 122.503906 C 401.367889 123.239906 403.392334 123.607224 406.152344 123.699219 L 406.152344 126 L 380.576172 126 L 380.576172 123.699219 C 383.152191 123.699219 384.899902 123.516434 386.003906 123.148438 C 387.843903 122.596436 388.763672 121.583527 388.763672 120.019531 L 388.212891 117.351563 L 383.519531 104.748047 L 359.416016 104.748047 L 355.736328 115.052734 C 355.184326 116.616737 354.908203 117.995407 354.908203 119.191406 C 354.908203 122.043404 357.667511 123.515213 363.1875 123.699219 L 363.1875 126 L 341.107422 126 Z M 360.519531 101.712891 L 382.507813 101.712891 L 371.652344 71.443359 L 371.46875 71.443359 L 360.519531 101.712891 Z M 285.247986 126 L 285.247986 123.699997 C 282.395996 123.699997 280.463989 123.515999 279.359985 123.056 C 277.428009 122.32 276.507996 120.664001 276.507996 118.272003 L 276.507996 75.031998 C 276.507996 72.363998 277.243988 70.615997 278.716003 69.695999 C 279.820007 69.052002 282.028015 68.683998 285.247986 68.592003 L 285.247986 66.292 L 259.671997 66.292 L 259.671997 68.592003 C 262.339996 68.592003 264.272003 68.867996 265.467987 69.236 C 267.399994 69.972 268.411987 71.536003 268.411987 73.928001 L 268.411987 117.444 C 268.411987 121.675995 266.29599 123.699997 262.247986 123.699997 L 259.671997 123.699997 L 259.671997 126 L 285.247986 126 Z M 257.371979 68.592003 L 257.371979 66.292 L 238.143997 66.292 L 238.143997 68.592003 C 243.388 68.867996 246.056 71.444 246.056 76.32 L 246.056 112.936005 L 245.871994 112.936005 L 211.647995 66.292 L 196.468002 66.292 L 196.468002 68.592003 C 199.412003 68.776001 202.356003 69.972 205.300003 72.18 L 205.300003 115.787994 C 205.300003 120.940002 202.356003 123.515999 196.468002 123.699997 L 196.468002 126 L 217.904007 126 L 217.904007 123.699997 C 211.647995 123.515999 208.612 120.940002 208.612 115.787994 L 208.612 74.848 L 208.796005 74.848 L 247.619995 127.655998 L 249.367996 127.655998 L 249.367996 76.32 C 249.367996 71.351997 252.035995 68.776001 257.371979 68.592003 Z M 194.259995 126 L 194.259995 123.699997 C 191.408005 123.699997 189.475998 123.515999 188.371994 123.056 C 186.440002 122.32 185.520004 120.664001 185.520004 118.272003 L 185.520004 75.031998 C 185.520004 72.363998 186.255997 70.615997 187.727997 69.695999 C 188.832001 69.052002 191.039993 68.683998 194.259995 68.592003 L 194.259995 66.292 L 168.684006 66.292 L 168.684006 68.592003 C 171.352005 68.592003 173.283997 68.867996 174.479996 69.236 C 176.412003 69.972 177.423996 71.536003 177.423996 73.928001 L 177.423996 117.444 C 177.423996 121.675995 175.307999 123.699997 171.259995 123.699997 L 168.684006 123.699997 L 168.684006 126 L 194.259995 126 Z M 166.475998 126 L 166.475998 123.699997 C 163.899994 123.699997 162.059998 123.423996 161.048004 122.872002 C 159.207993 122.136002 158.380005 120.571999 158.380005 118.18 L 158.380005 74.204002 C 158.380005 71.996002 159.207993 70.431999 160.955994 69.512001 C 162.059998 68.959999 163.899994 68.683998 166.475998 68.592003 L 166.475998 66.292 L 141.912003 66.292 L 141.912003 68.592003 C 144.488007 68.592003 146.419998 68.867996 147.524002 69.328003 C 149.363998 70.248001 150.283997 71.903999 150.283997 74.480003 L 150.283997 93.891998 L 121.671997 93.891998 L 121.671997 74.204002 C 121.671997 71.996002 122.5 70.431999 124.248001 69.512001 C 125.351997 68.959999 127.192001 68.683998 129.76799 68.592003 L 129.76799 66.292 L 105.480003 66.292 L 105.480003 68.592003 L 107.503998 68.592003 C 111.552002 68.592003 113.575996 70.524002 113.575996 74.204002 L 113.575996 118.18 C 113.575996 121.860001 110.816002 123.699997 105.480003 123.699997 L 105.480003 126 L 129.76799 126 L 129.76799 123.699997 C 127.192001 123.608002 125.444 123.332001 124.431999 122.872002 C 122.592003 122.136002 121.671997 120.755997 121.671997 118.731995 L 121.671997 96.835999 L 150.283997 96.835999 L 150.283997 118.18 C 150.283997 120.571999 149.272003 122.227997 147.339996 122.964005 C 146.235992 123.515999 144.395996 123.699997 141.912003 123.699997 L 141.912003 126 L 166.475998 126 Z"/>
        <text id="C" xml:space="preserve" x="41" y="136" font-family="BiauKaiHK" font-size="110" fill="#ffffff">C</text>
        <path id="Trazado" fill="#ffffff" fill-rule="evenodd" stroke="none" d="M 294 5 L 292 9 L 295 8 L 294 5 Z"/>
    </g>
    <text id="CAFE" xml:space="preserve" x="213" y="34" font-family="BiauKaiHK" font-size="30" fill="#ffffff" letter-spacing="3.3">CAFE</text>
</svg>
